<svg width="175" height="59" viewBox="0 0 175 59" fill="none" xmlns="http://www.w3.org/2000/svg">
<path d="M24.7363 58.5811C19.9219 58.5811 15.7161 57.6403 12.1191 55.7588C8.57747 53.8219 5.81055 51.1934 3.81836 47.873C1.88151 44.4974 0.913086 40.7067 0.913086 36.501C0.913086 32.0186 1.7985 27.7575 3.56934 23.7178C5.39551 19.6227 7.80273 15.998 10.791 12.8438C13.8346 9.68945 17.238 7.19922 21.001 5.37305C24.764 3.54688 28.5824 2.63379 32.4561 2.63379C37.9899 2.63379 43.7174 3.4362 49.6387 5.04102C49.6387 5.37305 49.5833 6.14779 49.4727 7.36523C49.4173 8.58268 49.3343 9.93848 49.2236 11.4326C49.1683 12.8714 49.0853 14.1719 48.9746 15.334C48.8639 16.4961 48.8086 17.1602 48.8086 17.3262C48.6979 17.7135 48.3936 18.0179 47.8955 18.2393C47.4528 18.4606 46.9824 18.5713 46.4844 18.5713L45.3223 18.3223C44.3262 10.9622 39.8714 7.28223 31.958 7.28223C28.8037 7.28223 26.0368 8.22298 23.6572 10.1045C21.333 11.9307 19.3685 14.3656 17.7637 17.4092C16.1589 20.3975 14.9414 23.6624 14.1113 27.2041C13.3366 30.7458 12.9492 34.1768 12.9492 37.4971C12.9492 42.4775 13.973 46.4896 16.0205 49.5332C18.1234 52.5768 21.2223 54.0986 25.3174 54.0986C27.6416 54.0986 29.9382 53.8219 32.207 53.2686C34.4759 52.7152 36.2467 51.9958 37.5195 51.1104C37.7962 50.889 38.2113 50.4186 38.7646 49.6992C39.318 48.9245 39.8991 48.1221 40.5078 47.292C41.1165 46.4066 41.6146 45.6595 42.002 45.0508C42.4447 44.3867 42.6937 44.0547 42.749 44.0547C44.1878 44.0547 44.9902 44.4144 45.1562 45.1338C45.1009 45.5212 44.9349 46.1852 44.6582 47.126C44.3815 48.0114 44.0495 48.9798 43.6621 50.0312C43.3301 51.0827 42.998 52.0234 42.666 52.8535C42.334 53.6836 42.0573 54.1816 41.8359 54.3477C38.6816 57.1699 32.9818 58.5811 24.7363 58.5811ZM61.2598 58.6641C58.8249 58.6641 57.0264 57.8063 55.8643 56.0908C54.7021 54.3753 54.1211 52.2171 54.1211 49.6162C54.1211 48.9521 54.2318 47.873 54.4531 46.3789C54.7298 44.8848 55.0618 43.0033 55.4492 40.7344L56.9434 32.7656C57.054 32.2122 57.137 31.7142 57.1924 31.2715C57.2477 30.7734 57.2754 30.2201 57.2754 29.6113C57.2754 28.6152 56.9987 28.1172 56.4453 28.1172C55.9473 28.1172 55.2555 28.3939 54.3701 28.9473C53.54 29.5007 52.7376 30.137 51.9629 30.8564C51.2435 31.5205 50.7178 32.0739 50.3857 32.5166C50.2751 32.5166 49.9707 32.2399 49.4727 31.6865C49.0299 31.1331 48.8086 30.7458 48.8086 30.5244C49.1406 29.7497 49.8324 28.8366 50.8838 27.7852C51.9906 26.6784 53.2633 25.5993 54.7021 24.5479C56.1963 23.4411 57.6904 22.528 59.1846 21.8086C60.734 21.0892 62.0898 20.7295 63.252 20.7295C64.5247 20.7295 65.5762 21.1445 66.4062 21.9746C67.2363 22.7493 67.6514 23.9115 67.6514 25.4609C67.6514 26.2357 67.5684 27.1488 67.4023 28.2002C67.2917 29.1963 67.098 30.3307 66.8213 31.6035L64.9121 41.4814C64.8568 41.7581 64.7461 42.2562 64.5801 42.9756C64.4694 43.6396 64.3587 44.3037 64.248 44.9678C64.1374 45.5765 64.082 46.0192 64.082 46.2959C64.082 48.5648 64.8844 49.6992 66.4893 49.6992C67.1533 49.6992 67.9557 49.0352 68.8965 47.707C69.8926 46.3789 70.8887 44.6911 71.8848 42.6436C72.8809 40.596 73.7663 38.4655 74.541 36.252C75.3711 33.9831 75.9798 31.9355 76.3672 30.1094L78.1104 21.3936C79.2171 21.0615 80.7666 20.8955 82.7588 20.8955C84.6956 20.8955 86.3281 21.0615 87.6562 21.3936L82.6758 47.375C82.6204 47.6517 82.5651 47.9561 82.5098 48.2881C82.5098 48.5648 82.5098 48.8968 82.5098 49.2842C82.5098 50.6123 82.7865 51.2764 83.3398 51.2764C83.8932 51.2764 84.585 50.9997 85.415 50.4463C86.2451 49.8929 87.0475 49.2565 87.8223 48.5371C88.597 47.8177 89.1227 47.2643 89.3994 46.877C89.5654 46.877 89.8698 47.1536 90.3125 47.707C90.7552 48.2604 90.9766 48.6478 90.9766 48.8691C90.6445 49.5885 89.9251 50.5016 88.8184 51.6084C87.7669 52.7152 86.4941 53.8219 85 54.9287C83.5612 55.9801 82.0671 56.8656 80.5176 57.585C79.0234 58.3044 77.6953 58.6641 76.5332 58.6641C75.3158 58.6641 74.2643 58.2767 73.3789 57.502C72.5488 56.6719 72.1338 55.4821 72.1338 53.9326C72.1338 53.4899 72.1891 52.8258 72.2998 51.9404C72.4105 51.055 72.5765 49.9482 72.7979 48.6201C72.7979 48.5648 72.9085 47.8454 73.1299 46.4619C72.1891 48.3988 70.9993 50.3079 69.5605 52.1895C68.1771 54.071 66.7383 55.6204 65.2441 56.8379C63.8053 58.0553 62.4772 58.6641 61.2598 58.6641ZM104.424 58.8301C101.768 58.8301 99.5264 57.917 97.7002 56.0908C95.9294 54.2646 95.0439 51.9404 95.0439 49.1182C95.0439 47.79 95.21 46.2682 95.542 44.5527L101.685 12.8438C102.183 10.2428 102.432 8.61035 102.432 7.94629C102.432 6.72884 101.076 6.12012 98.3643 6.12012C98.1982 6.12012 98.1152 5.89876 98.1152 5.45605C98.1152 4.68132 98.3643 4.04492 98.8623 3.54688C99.5264 3.54688 100.467 3.4362 101.685 3.21484C102.902 2.99349 104.202 2.7168 105.586 2.38477C107.025 2.05273 108.353 1.7207 109.57 1.38867C110.843 1.0013 111.839 0.641602 112.559 0.30957C113.112 0.530924 113.389 1.13965 113.389 2.13574C113.389 2.52311 113.25 3.32552 112.974 4.54297C112.752 5.76042 112.42 7.42057 111.978 9.52344L108.159 29.2793L108.491 28.7812C109.155 27.7852 109.958 26.6784 110.898 25.4609C111.895 24.1882 113.057 23.0814 114.385 22.1406C115.768 21.1999 117.29 20.7295 118.95 20.7295C124.595 20.7295 127.417 24.7692 127.417 32.8486C127.417 36.501 126.642 40.015 125.093 43.3906C123.599 46.7109 121.717 49.4502 119.448 51.6084C117.124 53.8219 114.634 55.5928 111.978 56.9209C109.321 58.1937 106.803 58.8301 104.424 58.8301ZM107.329 54.0986C109.045 54.0986 110.677 52.9089 112.227 50.5293C113.831 48.2051 115.076 45.4658 115.962 42.3115C116.847 39.1019 117.29 36.1413 117.29 33.4297C117.29 29.722 116.46 27.8682 114.8 27.8682C113.638 27.8682 112.393 28.6706 111.064 30.2754C109.792 31.8802 108.63 33.9277 107.578 36.418C106.527 38.9082 105.752 41.4814 105.254 44.1377C104.867 45.6872 104.645 47.2367 104.59 48.7861C104.59 50.2803 104.811 51.5531 105.254 52.6045C105.752 53.6006 106.444 54.0986 107.329 54.0986ZM141.279 58.8301C138.623 58.8301 136.382 57.917 134.556 56.0908C132.785 54.2646 131.899 51.9404 131.899 49.1182C131.899 47.79 132.065 46.2682 132.397 44.5527L138.54 12.8438C139.038 10.2428 139.287 8.61035 139.287 7.94629C139.287 6.72884 137.931 6.12012 135.22 6.12012C135.054 6.12012 134.971 5.89876 134.971 5.45605C134.971 4.68132 135.22 4.04492 135.718 3.54688C136.382 3.54688 137.323 3.4362 138.54 3.21484C139.757 2.99349 141.058 2.7168 142.441 2.38477C143.88 2.05273 145.208 1.7207 146.426 1.38867C147.699 1.0013 148.695 0.641602 149.414 0.30957C149.967 0.530924 150.244 1.13965 150.244 2.13574C150.244 2.52311 150.106 3.32552 149.829 4.54297C149.608 5.76042 149.276 7.42057 148.833 9.52344L145.015 29.2793L145.347 28.7812C146.011 27.7852 146.813 26.6784 147.754 25.4609C148.75 24.1882 149.912 23.0814 151.24 22.1406C152.624 21.1999 154.146 20.7295 155.806 20.7295C161.45 20.7295 164.272 24.7692 164.272 32.8486C164.272 36.501 163.498 40.015 161.948 43.3906C160.454 46.7109 158.573 49.4502 156.304 51.6084C153.979 53.8219 151.489 55.5928 148.833 56.9209C146.177 58.1937 143.659 58.8301 141.279 58.8301ZM144.185 54.0986C145.9 54.0986 147.533 52.9089 149.082 50.5293C150.687 48.2051 151.932 45.4658 152.817 42.3115C153.703 39.1019 154.146 36.1413 154.146 33.4297C154.146 29.722 153.315 27.8682 151.655 27.8682C150.493 27.8682 149.248 28.6706 147.92 30.2754C146.647 31.8802 145.485 33.9277 144.434 36.418C143.382 38.9082 142.607 41.4814 142.109 44.1377C141.722 45.6872 141.501 47.2367 141.445 48.7861C141.445 50.2803 141.667 51.5531 142.109 52.6045C142.607 53.6006 143.299 54.0986 144.185 54.0986ZM168.091 58.9131C166.541 58.9131 165.379 58.415 164.604 57.4189C163.774 56.3675 163.359 55.1777 163.359 53.8496C163.359 51.9128 164.051 50.1973 165.435 48.7031C166.873 47.209 168.478 46.4619 170.249 46.4619C171.522 46.4619 172.629 46.9046 173.569 47.79C174.51 48.6201 174.98 49.7546 174.98 51.1934C174.98 52.5215 174.648 53.7943 173.984 55.0117C173.32 56.1738 172.463 57.1146 171.411 57.834C170.36 58.5534 169.253 58.9131 168.091 58.9131Z" fill="black"/>
</svg>
